<?xml version="1.0" standalone="no"?>
<!DOCTYPE svg PUBLIC "-//W3C//DTD SVG 20010904//EN"
 "http://www.w3.org/TR/2001/REC-SVG-20010904/DTD/svg10.dtd">
<svg version="1.0" xmlns="http://www.w3.org/2000/svg"
 viewBox="0 0 1000.000000 996.000000"
 preserveAspectRatio="xMidYMid meet">

<g transform="translate(0.000000,996.000000) scale(0.100000,-0.100000)"
fill="#003e6b" stroke="none">
<path d="M4415 9505 c-195 -29 -616 -117 -741 -154 -137 -41 -243 -86 -273
-115 l-24 -25 73 20 c40 10 75 17 78 15 2 -3 -27 -19 -64 -36 -82 -38 -334
-123 -342 -116 -3 3 33 24 79 46 l84 39 -47 1 c-61 0 -157 -41 -478 -202 -225
-113 -282 -146 -480 -285 -212 -148 -237 -170 -439 -368 -352 -347 -529 -573
-784 -1002 -268 -450 -421 -769 -526 -1093 -123 -382 -120 -372 -122 -530 -1
-152 19 -287 62 -435 18 -60 29 -77 85 -132 76 -75 125 -101 201 -109 l58 -6
1 -232 c1 -455 76 -852 241 -1271 364 -928 1115 -1696 2084 -2133 448 -203
895 -322 1419 -379 214 -23 686 -23 900 0 714 78 1348 290 1915 642 55 34 107
66 115 70 39 23 -162 -158 -208 -187 -30 -18 -95 -64 -145 -101 -63 -46 -159
-101 -302 -171 -233 -115 -296 -140 -630 -250 -308 -101 -373 -117 -480 -121
-49 -1 -101 -6 -114 -10 -25 -7 -58 -12 -116 -14 -21 -1 -26 -4 -16 -10 18
-12 -100 -32 -209 -37 -51 -2 -102 -10 -125 -20 -58 -25 -230 -30 -323 -10
-58 12 -82 13 -127 4 -45 -10 -83 -8 -232 11 -453 57 -725 127 -1158 297 -385
152 -839 399 -923 501 -58 71 -87 95 -141 119 -50 23 -130 95 -233 209 -19 22
-58 61 -86 86 -30 27 -63 72 -82 109 -30 59 -92 133 -248 295 -77 80 -201 266
-217 326 -15 56 -45 109 -61 109 -6 0 -17 -6 -23 -14 -10 -11 -6 -30 19 -87
17 -39 29 -74 26 -76 -2 -2 -19 21 -36 53 -18 31 -51 78 -74 104 -23 26 -67
89 -99 140 -32 51 -60 90 -63 87 -7 -6 47 -114 92 -185 19 -29 47 -80 62 -115
16 -34 93 -158 171 -275 78 -118 138 -211 133 -208 -11 7 -131 175 -197 277
-27 43 -73 110 -101 151 -28 40 -86 141 -130 223 -83 159 -108 174 -55 34 17
-44 31 -93 31 -108 0 -74 209 -426 388 -654 73 -93 132 -170 132 -173 0 -12
-18 9 -128 149 -117 149 -207 283 -345 514 -37 62 -85 130 -105 151 -21 22
-60 81 -87 133 -101 189 -47 -23 64 -256 103 -215 236 -414 476 -715 244 -304
443 -508 654 -669 128 -97 348 -246 456 -308 250 -145 613 -295 1025 -426 326
-104 534 -141 980 -178 483 -39 850 -16 1355 86 189 38 567 154 780 240 154
62 369 165 540 261 269 150 689 460 898 663 167 162 407 447 510 606 29 44 98
149 154 232 202 300 317 532 387 779 21 71 71 233 113 359 93 284 117 397 144
668 18 193 41 715 33 769 -2 13 -10 84 -19 158 -17 140 -88 512 -131 682 -13
53 -47 168 -74 255 -28 87 -65 202 -82 257 -55 173 -308 650 -465 876 -21 30
-54 84 -73 120 -33 61 -125 190 -136 190 -3 0 -2 -5 2 -12 4 -7 -39 37 -97 97
-128 133 -310 291 -347 300 -32 8 -125 77 -145 108 -7 12 -17 33 -20 47 -7 28
-10 30 -151 107 -113 62 -170 101 -268 185 -74 63 -102 79 -175 104 -79 27
-333 161 -483 255 -89 57 -4 32 287 -82 125 -49 176 -79 298 -175 75 -59 104
-71 130 -57 14 8 1 20 -66 66 -99 68 -85 76 19 12 40 -25 81 -45 91 -45 11 0
22 -4 26 -10 14 -23 354 -270 372 -270 34 0 106 -56 264 -206 211 -198 290
-283 369 -394 75 -105 220 -295 220 -288 0 2 25 -19 54 -46 61 -57 97 -113
191 -297 66 -129 115 -198 74 -103 -51 118 -151 316 -202 399 -86 142 -295
423 -320 431 -12 4 -87 73 -167 154 -209 212 -479 450 -632 557 -127 88 -168
128 -168 164 0 9 -21 31 -47 48 -55 35 -51 41 7 11 72 -37 42 -4 -45 49 -47
29 -85 54 -85 56 0 6 112 -45 149 -68 24 -14 32 -16 29 -6 -13 40 -377 258
-548 329 -437 181 -785 282 -1150 335 -229 33 -708 65 -975 65 -156 0 -276 4
-299 11 -50 14 -269 -10 -471 -52 -163 -34 -183 -35 -134 -9 25 13 116 31 275
55 132 19 249 38 262 41 32 9 27 30 -9 38 -41 8 -39 8 -214 -19z m1280 -310
c83 -14 204 -30 270 -35 130 -10 266 -44 500 -124 186 -64 110 -60 -109 5 -94
28 -200 60 -236 70 -50 14 -554 89 -601 89 -5 0 -9 5 -9 10 0 14 19 13 185
-15z m-300 -86 c91 -6 206 -21 265 -34 l105 -23 -60 -1 c-33 -1 -132 8 -218
19 -92 11 -283 24 -455 30 -366 12 -364 12 -272 21 92 8 419 2 635 -12z m-155
-170 c221 -8 366 -19 580 -46 339 -41 374 -48 595 -115 169 -51 594 -228 765
-320 113 -60 255 -156 345 -233 44 -37 123 -100 175 -140 134 -102 406 -350
480 -437 34 -40 105 -138 157 -218 53 -80 129 -190 169 -245 218 -301 434
-739 475 -965 6 -30 24 -93 41 -140 16 -47 43 -123 58 -170 16 -48 38 -108 48
-136 21 -52 19 -98 -5 -122 -16 -16 -11 -27 -59 138 -64 223 -174 489 -288
698 -545 999 -1522 1723 -2706 2006 -355 85 -661 119 -1060 119 -317 0 -475
-12 -760 -59 -357 -59 -735 -170 -1054 -310 -55 -24 -101 -42 -104 -40 -11 11
220 120 333 157 159 51 224 79 249 108 l19 21 -45 0 c-64 0 -150 -28 -398
-132 -213 -88 -300 -131 -300 -147 0 -26 46 -40 90 -27 14 4 -18 -16 -70 -44
-214 -117 -298 -166 -423 -249 -226 -150 -409 -296 -599 -479 -94 -91 -106
-100 -96 -70 22 70 38 96 96 169 46 57 76 84 121 108 44 23 76 51 119 104 106
130 97 134 -28 12 l-123 -120 124 145 c69 80 131 159 138 177 26 63 182 198
351 302 47 29 103 70 125 90 72 66 273 166 520 256 72 27 198 74 280 105 357
137 677 201 1260 253 82 7 117 7 405 -4z m1225 -19 c8 -13 -15 -13 -35 0 -12
8 -11 10 7 10 12 0 25 -4 28 -10z m205 -36 l25 -14 -30 6 c-16 4 -41 13 -55
20 l-25 14 30 -6 c17 -4 41 -13 55 -20z m726 -79 c10 -8 14 -15 8 -15 -5 0
-19 7 -30 15 -10 8 -14 15 -8 15 5 0 19 -7 30 -15z m-248 -35 c62 -32 166
-104 127 -87 -24 10 -215 119 -215 123 0 9 15 3 88 -36z m1823 -2256 c28 -58
49 -108 46 -110 -2 -2 -27 45 -55 106 -28 60 -49 110 -46 110 3 0 28 -48 55
-106z m-5387 -783 l27 -28 -33 -29 c-19 -16 -57 -40 -85 -53 -44 -20 -55 -22
-68 -11 -14 12 -8 21 52 82 37 37 70 68 73 68 4 0 19 -13 34 -29z m-2007 -197
c53 -39 63 -74 63 -231 l0 -143 -145 0 -145 0 0 -109 c0 -102 2 -112 24 -138
21 -25 31 -28 81 -28 50 0 60 3 81 28 18 21 24 40 24 73 l0 44 40 0 40 0 0
-45 c0 -101 -51 -160 -148 -172 -109 -13 -202 38 -217 119 -3 18 -5 146 -3
285 3 236 4 253 24 280 36 49 79 64 171 61 64 -2 88 -8 110 -24z m2002 6 c69
-35 71 -47 71 -399 0 -292 -1 -311 -18 -311 -11 0 -22 12 -30 32 l-12 31 -25
-27 c-52 -56 -129 -70 -202 -37 -62 29 -73 58 -73 193 0 127 8 151 59 185 29
20 47 23 127 23 l94 0 0 109 c0 106 -1 110 -26 130 -18 15 -41 21 -73 21 -68
0 -85 -16 -91 -87 l-5 -58 -37 -3 -38 -3 0 58 c0 71 23 119 71 145 47 25 157
25 208 -2z m1340 0 c52 -26 71 -70 71 -159 l0 -71 -40 0 -40 0 0 65 c0 57 -3
69 -25 90 -32 33 -110 35 -149 4 -22 -17 -26 -28 -26 -72 l0 -52 130 -125
c140 -136 160 -167 160 -252 0 -96 -51 -146 -159 -155 -71 -7 -133 10 -174 47
-31 27 -32 32 -36 114 l-3 86 41 0 41 0 0 -65 c0 -51 4 -69 19 -84 42 -42 158
-35 182 11 6 11 9 41 6 66 -4 42 -14 53 -135 176 -72 72 -136 144 -142 159
-16 44 -12 135 7 168 39 66 187 93 272 49z m3690 -9 c57 -41 61 -62 61 -346 0
-234 -2 -259 -20 -294 -33 -65 -136 -96 -239 -71 -59 14 -106 60 -116 112 -3
18 -5 146 -3 285 3 281 4 284 78 325 53 29 192 22 239 -11z m-6429 -306 l0
-325 100 0 100 0 0 -35 0 -35 -140 0 -140 0 0 360 0 360 40 0 40 0 0 -325z
m660 -35 l0 -360 -40 0 -40 0 0 360 0 360 40 0 40 0 0 -360z m2838 323 l3 -33
-85 0 -86 0 0 -271 c0 -266 4 -301 34 -321 17 -12 40 -9 62 6 15 12 20 30 24
103 l5 88 35 0 35 0 3 -82 c4 -129 -28 -180 -122 -190 -52 -6 -107 17 -133 55
-16 24 -18 58 -21 355 l-3 328 123 -3 123 -3 3 -32z m512 -277 l0 -315 26 -20
c46 -36 107 -21 158 39 l26 32 0 289 0 289 40 0 40 0 0 -360 c0 -346 -1 -360
-19 -360 -11 0 -23 12 -31 30 l-12 30 -40 -34 c-58 -50 -123 -59 -194 -27 -72
33 -74 43 -74 405 l0 316 40 0 40 0 0 -314z m1038 290 c18 -9 42 -31 52 -49
18 -30 20 -52 20 -290 0 -293 -2 -302 -75 -337 -34 -16 -62 -20 -158 -20
l-117 0 0 361 0 361 123 -4 c90 -3 131 -9 155 -22z m612 -336 l0 -360 -40 0
-40 0 0 360 0 360 40 0 40 0 0 -360z m-3640 -300 l0 -60 -55 0 -55 0 0 60 0
60 55 0 55 0 0 -60z m3544 -445 c64 -30 66 -43 66 -344 0 -236 -2 -271 -15
-271 -9 0 -21 11 -27 25 l-11 25 -27 -25 c-54 -52 -147 -54 -199 -6 -34 32
-48 107 -37 199 12 101 53 132 176 132 l70 0 0 90 c0 109 -14 130 -83 130 -59
0 -78 -17 -84 -73 -5 -46 -7 -47 -39 -47 -32 0 -34 2 -33 33 1 96 54 147 151
147 33 0 74 -7 92 -15z m487 -14 c26 -26 29 -36 29 -90 l0 -61 -30 0 c-28 0
-30 3 -30 34 0 59 -15 86 -50 86 -37 0 -65 -27 -79 -77 -6 -22 -11 -136 -11
-265 l0 -228 -35 0 -35 0 0 310 c0 291 1 310 18 310 11 0 22 -13 30 -32 l12
-33 19 31 c23 38 32 42 89 43 35 1 49 -5 73 -28z m382 15 c18 -7 42 -26 52
-42 18 -27 20 -47 20 -261 0 -224 -1 -232 -22 -262 -26 -34 -24 -36 32 -45 68
-12 73 -14 67 -41 -5 -30 2 -29 -113 -6 -52 10 -119 22 -149 26 -65 8 -112 34
-128 70 -8 18 -12 102 -12 258 0 256 1 259 64 298 38 23 140 26 189 5z m733
-233 c-7 -70 -17 -140 -57 -388 -26 -156 -186 -574 -320 -835 -81 -156 -127
-225 -78 -115 17 39 49 111 71 160 76 172 127 322 182 541 30 120 73 262 95
314 23 57 53 157 73 247 18 84 35 153 37 153 2 0 1 -35 -3 -77z m-1946 -413
l0 -30 -180 0 -180 0 0 30 0 30 180 0 180 0 0 -30z m1392 -1235 c-54 -115
-241 -368 -316 -427 -19 -15 -69 -69 -112 -120 -90 -108 -175 -198 -186 -198
-5 0 31 48 80 108 96 116 157 205 185 266 23 49 134 227 212 337 81 115 85
120 125 153 l35 29 3 -42 c2 -31 -5 -60 -26 -106z m-7327 -82 c20 -32 28 -49
18 -38 -21 21 -68 95 -60 95 2 0 21 -26 42 -57z m6655 -294 c0 -17 -179 -205
-229 -241 -37 -25 -25 -9 59 80 58 62 116 126 130 142 26 31 40 38 40 19z
m-6200 -257 c0 -9 -31 18 -60 53 l-34 40 47 -45 c26 -24 47 -46 47 -48z m5725
-242 c-10 -11 -21 -17 -24 -14 -3 3 3 12 13 20 28 20 32 17 11 -6z"/>
<path d="M4720 8763 c-172 -8 -489 -34 -520 -43 -20 -5 -45 -17 -55 -26 -19
-14 -16 -15 40 -10 39 3 55 2 45 -4 -8 -5 -23 -10 -32 -10 -10 0 -18 -4 -18
-9 0 -5 -19 -12 -42 -16 -158 -26 82 -35 267 -10 261 36 372 46 559 54 161 6
201 11 210 23 6 9 20 17 30 19 28 6 30 26 4 33 -22 6 -357 5 -488 -1z"/>
<path d="M3868 8557 c-128 -42 -147 -51 -135 -64 14 -13 287 83 287 101 0 11
-25 5 -152 -37z"/>
<path d="M1379 5471 c-22 -18 -24 -28 -27 -130 l-4 -111 107 0 107 0 -4 111
c-3 102 -5 112 -27 130 -16 13 -39 19 -76 19 -37 0 -60 -6 -76 -19z"/>
<path d="M3386 5138 c-18 -26 -23 -197 -6 -228 24 -44 120 -32 165 21 23 28
25 38 25 130 l0 99 -84 0 c-76 0 -86 -2 -100 -22z"/>
<path d="M8399 5471 l-24 -19 0 -261 c0 -257 0 -261 22 -283 19 -18 34 -22 84
-23 55 0 63 3 85 29 l25 28 -3 255 c-3 254 -3 255 -27 274 -33 27 -129 27
-162 0z"/>
<path d="M7030 5190 l0 -290 69 0 c54 0 74 4 95 21 l26 20 0 240 c0 138 -4
248 -10 259 -13 24 -62 40 -126 40 l-54 0 0 -290z"/>
<path d="M7589 4101 c-19 -15 -24 -30 -27 -87 -2 -38 1 -81 7 -97 21 -53 91
-56 141 -5 29 28 30 33 30 119 l0 89 -64 0 c-48 0 -70 -5 -87 -19z"/>
<path d="M8450 4380 c-19 -19 -20 -33 -20 -236 0 -126 4 -223 10 -234 12 -23
72 -41 111 -33 61 12 64 23 64 265 0 219 0 220 -24 239 -33 27 -114 26 -141
-1z"/>
<path d="M7812 8298 c3 -20 78 -88 98 -88 4 0 10 7 14 15 3 10 -12 29 -45 55
-58 46 -72 49 -67 18z"/>
<path d="M9146 7005 c7 -34 44 -114 56 -121 16 -10 7 28 -17 74 -37 71 -47 83
-39 47z"/>
</g>
</svg>
